# xmcd
#
# Track frame offsets: 
#        150
#        20145
#        41115
#        60156
#        76832
#        90606
#        117062
#        136319
#        155809
#        169577
#
# Disc length: 2640 seconds
#
# Revision: 0
# Processed by: cddbd v1.5.2PL0 Copyright (c) Steve Scherf et al.
# Submitted via: ExactAudioCopy v0.95b2
#
DISCID=770a4e0a
DTITLE=Ewan Blackledge - Sliding Scales
DYEAR=2006
DGENRE=Blues
TTITLE0=Rolling And Tumbling
TTITLE1=Little Girl
TTITLE2=Backdoor Man
TTITLE3=Sliding Scales
TTITLE4=Crash On The Levy
TTITLE5=Wish I Had Not Said That Baby
TTITLE6=Easy Rider Blues
TTITLE7=Admira and Bosko
TTITLE8=Can't Be Satisfied
TTITLE9=Poncho and Lefty
EXTD=
EXTT0=
EXTT1=
EXTT2=
EXTT3=
EXTT4=
EXTT5=
EXTT6=
EXTT7=
EXTT8=
EXTT9=
PLAYORDER=
